<svg width="40" height="40" viewBox="0 0 40 40" fill="none" xmlns="http://www.w3.org/2000/svg">
<path d="M28 14H24.4V12.8C24.4 11.527 23.8943 10.3061 22.9941 9.40589C22.0939 8.50571 20.873 8 19.6 8C18.327 8 17.1061 8.50571 16.2059 9.40589C15.3057 10.3061 14.8 11.527 14.8 12.8V14H11.2C10.8817 14 10.5765 14.1264 10.3515 14.3515C10.1264 14.5765 10 14.8817 10 15.2V28.4C10 29.3548 10.3793 30.2705 11.0544 30.9456C11.7295 31.6207 12.6452 32 13.6 32H25.6C26.5548 32 27.4705 31.6207 28.1456 30.9456C28.8207 30.2705 29.2 29.3548 29.2 28.4V15.2C29.2 14.8817 29.0736 14.5765 28.8485 14.3515C28.6235 14.1264 28.3183 14 28 14ZM17.2 12.8C17.2 12.1635 17.4529 11.553 17.9029 11.1029C18.353 10.6529 18.9635 10.4 19.6 10.4C20.2365 10.4 20.847 10.6529 21.2971 11.1029C21.7471 11.553 22 12.1635 22 12.8V14H17.2V12.8ZM26.8 28.4C26.8 28.7183 26.6736 29.0235 26.4485 29.2485C26.2235 29.4736 25.9183 29.6 25.6 29.6H13.6C13.2817 29.6 12.9765 29.4736 12.7515 29.2485C12.5264 29.0235 12.4 28.7183 12.4 28.4V16.4H14.8V17.6C14.8 17.9183 14.9264 18.2235 15.1515 18.4485C15.3765 18.6736 15.6817 18.8 16 18.8C16.3183 18.8 16.6235 18.6736 16.8485 18.4485C17.0736 18.2235 17.2 17.9183 17.2 17.6V16.4H22V17.6C22 17.9183 22.1264 18.2235 22.3515 18.4485C22.5765 18.6736 22.8817 18.8 23.2 18.8C23.5183 18.8 23.8235 18.6736 24.0485 18.4485C24.2736 18.2235 24.4 17.9183 24.4 17.6V16.4H26.8V28.4Z" fill="#111111"/>
</svg>
