<svg width="40" height="40" viewBox="0 0 40 40" fill="none" xmlns="http://www.w3.org/2000/svg">
<path d="M30.8243 25.7841L28.3343 23.234C27.7987 22.7248 27.1231 22.3875 26.3943 22.2653C25.6655 22.1431 24.9168 22.2417 24.2444 22.5483L23.1618 21.4657C24.4376 19.7611 25.0202 17.6365 24.7924 15.5195C24.5646 13.4026 23.5433 11.4506 21.9342 10.0564C20.325 8.66216 18.2474 7.92932 16.1196 8.00538C13.9918 8.08144 11.9718 8.96074 10.4663 10.4663C8.96074 11.9718 8.08144 13.9918 8.00538 16.1196C7.92932 18.2474 8.66216 20.325 10.0564 21.9341C11.4506 23.5433 13.4026 24.5646 15.5195 24.7924C17.6365 25.0202 19.7611 24.4376 21.4657 23.1618L22.5363 24.2324C22.1936 24.9056 22.0707 25.6693 22.1851 26.416C22.2995 27.1627 22.6453 27.8547 23.1738 28.3945L25.724 30.9446C26.4006 31.6204 27.3179 32 28.2742 32C29.2305 32 30.1477 31.6204 30.8243 30.9446C31.168 30.6085 31.4412 30.2072 31.6276 29.7641C31.8141 29.321 31.9101 28.8451 31.9101 28.3644C31.9101 27.8837 31.8141 27.4078 31.6276 26.9647C31.4412 26.5216 31.168 26.1202 30.8243 25.7841ZM20.6237 20.6838C19.7819 21.5234 18.7102 22.0948 17.5439 22.3256C16.3776 22.5564 15.1691 22.4364 14.0709 21.9808C12.9728 21.5251 12.0344 20.7542 11.3742 19.7654C10.7139 18.7767 10.3616 17.6144 10.3616 16.4255C10.3616 15.2366 10.7139 14.0744 11.3742 13.0856C12.0344 12.0968 12.9728 11.3259 14.0709 10.8703C15.1691 10.4146 16.3776 10.2946 17.5439 10.5254C18.7102 10.7563 19.7819 11.3276 20.6237 12.1672C21.1838 12.7259 21.6282 13.3896 21.9314 14.1203C22.2346 14.851 22.3907 15.6344 22.3907 16.4255C22.3907 17.2166 22.2346 18 21.9314 18.7307C21.6282 19.4614 21.1838 20.1251 20.6237 20.6838ZM29.1282 29.1884C29.0164 29.3011 28.8834 29.3906 28.7368 29.4517C28.5902 29.5127 28.433 29.5442 28.2742 29.5442C28.1154 29.5442 27.9581 29.5127 27.8116 29.4517C27.665 29.3906 27.5319 29.3011 27.4201 29.1884L24.8699 26.6382C24.7572 26.5264 24.6677 26.3933 24.6066 26.2468C24.5456 26.1002 24.5141 25.9429 24.5141 25.7841C24.5141 25.6253 24.5456 25.4681 24.6066 25.3215C24.6677 25.1749 24.7572 25.0419 24.8699 24.9301C24.9818 24.8173 25.1148 24.7278 25.2614 24.6668C25.408 24.6057 25.5652 24.5743 25.724 24.5743C25.8828 24.5743 26.04 24.6057 26.1866 24.6668C26.3332 24.7278 26.4662 24.8173 26.5781 24.9301L29.1282 27.4802C29.241 27.5921 29.3305 27.7251 29.3915 27.8717C29.4526 28.0183 29.484 28.1755 29.484 28.3343C29.484 28.4931 29.4526 28.6503 29.3915 28.7969C29.3305 28.9435 29.241 29.0765 29.1282 29.1884Z" fill="#111111"/>
</svg>
